<svg xmlns="http://www.w3.org/2000/svg" width="1600" height="760" viewBox="0 0 1600 760" role="img" aria-label="长 response delay 下的 OT 累积">
<rect width="1600" height="760" fill="#FFFFFF"/>
<rect width="1600" height="94" fill="#23313F"/>
<text x="70" y="57" font-family="Noto Sans CJK SC,Microsoft YaHei,Arial,sans-serif" font-size="46" font-weight="700" fill="#FFFFFF">长 response delay 下的 OT 累积</text>
<text x="70" y="83" font-family="Noto Sans CJK SC,Microsoft YaHei,Arial,sans-serif" font-size="23" fill="#B9D7F5">AXI Outstanding／Backpressure 的 request tracker 观察点</text>
<rect x="55" y="210" width="1490" height="360" rx="24" fill="#F4F6F7" stroke="#D5D8DC" stroke-width="2"/>
<rect x="85" y="330" width="290" height="140" rx="18" fill="#FFFFFF" stroke="#C0392B" stroke-width="3"/><text x="230" y="410" text-anchor="middle" font-family="Noto Sans CJK SC,Microsoft YaHei,Arial,sans-serif" font-size="32" font-weight="700" fill="#23313F">请求持续进入</text><path d="M385 400 H445" stroke="#C0392B" stroke-width="5"/><path d="M435 387 L455 400 L435 413 Z" fill="#C0392B"/><rect x="460" y="330" width="290" height="140" rx="18" fill="#FFFFFF" stroke="#C0392B" stroke-width="3"/><text x="605" y="410" text-anchor="middle" font-family="Noto Sans CJK SC,Microsoft YaHei,Arial,sans-serif" font-size="32" font-weight="700" fill="#23313F">response 延迟</text><path d="M760 400 H820" stroke="#C0392B" stroke-width="5"/><path d="M810 387 L830 400 L810 413 Z" fill="#C0392B"/><rect x="835" y="330" width="290" height="140" rx="18" fill="#FFFFFF" stroke="#C0392B" stroke-width="3"/><text x="980" y="410" text-anchor="middle" font-family="Noto Sans CJK SC,Microsoft YaHei,Arial,sans-serif" font-size="32" font-weight="700" fill="#23313F">OT 持续占用</text><path d="M1135 400 H1195" stroke="#C0392B" stroke-width="5"/><path d="M1185 387 L1205 400 L1185 413 Z" fill="#C0392B"/><rect x="1210" y="330" width="290" height="140" rx="18" fill="#FFFFFF" stroke="#C0392B" stroke-width="3"/><text x="1355" y="410" text-anchor="middle" font-family="Noto Sans CJK SC,Microsoft YaHei,Arial,sans-serif" font-size="32" font-weight="700" fill="#23313F">达到 limit 后回压</text>
<rect x="210" y="630" width="1180" height="62" rx="31" fill="#C0392B"/>
<text x="800" y="672" text-anchor="middle" font-family="Noto Sans CJK SC,Microsoft YaHei,Arial,sans-serif" font-size="30" font-weight="700" fill="#FFFFFF">DV 关注点：状态只在合法 handshake 发生时改变</text>
</svg>