<svg xmlns="http://www.w3.org/2000/svg" width="1600" height="820" viewBox="0 0 1600 820" role="img" aria-label="UVM 常见阶段与职责"><rect width="1600" height="820" fill="#FFFFFF"/><rect width="1600" height="94" fill="#23313F"/><text x="70" y="57" font-family="Noto Sans CJK SC,Microsoft YaHei,Arial,sans-serif" font-size="46" font-weight="700" fill="#FFFFFF">UVM 常见阶段与职责</text><rect x="30" y="130" width="1540" height="550" rx="16" fill="#FFFFFF" stroke="#D5D8DC" stroke-width="2"/><rect x="30" y="130" width="410" height="80" rx="16" fill="#1F6FB5"/><rect x="440" y="130" width="500" height="80" fill="#34495E"/><rect x="940" y="130" width="630" height="80" rx="16" fill="#E67E22"/><text x="235" y="183" text-anchor="middle" font-family="Noto Sans CJK SC,Microsoft YaHei,Arial,sans-serif" font-size="41" font-weight="700" fill="#FFFFFF">阶段</text><text x="690" y="183" text-anchor="middle" font-family="Noto Sans CJK SC,Microsoft YaHei,Arial,sans-serif" font-size="41" font-weight="700" fill="#FFFFFF">主要职责</text><text x="1255" y="183" text-anchor="middle" font-family="Noto Sans CJK SC,Microsoft YaHei,Arial,sans-serif" font-size="41" font-weight="700" fill="#FFFFFF">DV 常见动作</text><path d="M440 130 V680 M940 130 V680 M30 210 H1570 M30 360 H1570 M30 510 H1570" stroke="#D5D8DC" stroke-width="2"/><rect x="30" y="210" width="1540" height="150" fill="#FFFFFF"/><rect x="30" y="360" width="1540" height="150" fill="#F4F6F7"/><rect x="30" y="510" width="1540" height="170" fill="#FFFFFF"/><text x="80" y="290" font-family="DejaVu Sans Mono,Consolas,monospace" font-size="36" font-weight="700" fill="#23313F">build_phase</text><text x="490" y="290" font-family="Noto Sans CJK SC,Microsoft YaHei,Arial,sans-serif" font-size="34" fill="#34495E">创建与配置 object hierarchy</text><text x="990" y="290" font-family="Noto Sans CJK SC,Microsoft YaHei,Arial,sans-serif" font-size="34" fill="#34495E">create agent、读取 config</text><text x="80" y="440" font-family="DejaVu Sans Mono,Consolas,monospace" font-size="36" font-weight="700" fill="#23313F">connect_phase</text><text x="490" y="440" font-family="Noto Sans CJK SC,Microsoft YaHei,Arial,sans-serif" font-size="34" fill="#34495E">连接 TLM port 与 export</text><text x="990" y="440" font-family="Noto Sans CJK SC,Microsoft YaHei,Arial,sans-serif" font-size="34" fill="#34495E">monitor 接入 scoreboard</text><text x="80" y="580" font-family="DejaVu Sans Mono,Consolas,monospace" font-size="36" font-weight="700" fill="#23313F">run_phase</text><text x="490" y="565" font-family="Noto Sans CJK SC,Microsoft YaHei,Arial,sans-serif" font-size="34" fill="#34495E">消耗仿真时间</text><text x="490" y="610" font-family="Noto Sans CJK SC,Microsoft YaHei,Arial,sans-serif" font-size="34" fill="#34495E">由 objection 管理结束</text><text x="990" y="565" font-family="Noto Sans CJK SC,Microsoft YaHei,Arial,sans-serif" font-size="34" fill="#34495E">drive transaction、等待 response</text><text x="990" y="610" font-family="Noto Sans CJK SC,Microsoft YaHei,Arial,sans-serif" font-size="34" fill="#34495E">collect coverage、drain</text></svg>