<svg xmlns="http://www.w3.org/2000/svg" width="1600" height="800" viewBox="0 0 1600 800"><rect width="1600" height="800" fill="#FFFFFF"/><rect width="1600" height="86" fill="#159477"/><text x="60" y="55" font-family="Noto Sans CJK SC,Arial" font-size="42" font-weight="700" fill="#FFFFFF">SR-IOV 与 SIOV 的虚拟接口模型</text><rect x="100" y="170" width="620" height="470" rx="20" fill="#EAF8F1" stroke="#159477" stroke-width="3"/><text x="150" y="235" font-family="Noto Sans CJK SC,Arial" font-size="36" font-weight="700" fill="#0B6B57">SR-IOV</text><rect x="190" y="300" width="160" height="90" rx="12" fill="#FFFFFF" stroke="#159477" stroke-width="3"/><text x="270" y="355" text-anchor="middle" font-family="Noto Sans CJK SC,Arial" font-size="28" fill="#23313F">PF</text><rect x="430" y="270" width="200" height="60" rx="12" fill="#FFFFFF" stroke="#159477" stroke-width="3"/><text x="530" y="310" text-anchor="middle" font-family="Noto Sans CJK SC,Arial" font-size="26" fill="#23313F">VF 0</text><rect x="430" y="370" width="200" height="60" rx="12" fill="#FFFFFF" stroke="#159477" stroke-width="3"/><text x="530" y="410" text-anchor="middle" font-family="Noto Sans CJK SC,Arial" font-size="26" fill="#23313F">VF N</text><text x="410" y="520" text-anchor="middle" font-family="Noto Sans CJK SC,Arial" font-size="28" fill="#34495E">每个 VF 是独立 PCIe Function</text><rect x="880" y="170" width="620" height="470" rx="20" fill="#F4F0FF" stroke="#7B68EE" stroke-width="3"/><text x="930" y="235" font-family="Noto Sans CJK SC,Arial" font-size="36" font-weight="700" fill="#5B4BB7">SIOV</text><rect x="970" y="300" width="180" height="90" rx="12" fill="#FFFFFF" stroke="#7B68EE" stroke-width="3"/><text x="1060" y="355" text-anchor="middle" font-family="Noto Sans CJK SC,Arial" font-size="28" fill="#23313F">PF</text><rect x="1220" y="270" width="210" height="60" rx="12" fill="#FFFFFF" stroke="#7B68EE" stroke-width="3"/><text x="1325" y="310" text-anchor="middle" font-family="Noto Sans CJK SC,Arial" font-size="26" fill="#23313F">SDI 0</text><rect x="1220" y="370" width="210" height="60" rx="12" fill="#FFFFFF" stroke="#7B68EE" stroke-width="3"/><text x="1325" y="410" text-anchor="middle" font-family="Noto Sans CJK SC,Arial" font-size="26" fill="#23313F">SDI N</text><text x="1190" y="520" text-anchor="middle" font-family="Noto Sans CJK SC,Arial" font-size="28" fill="#34495E">轻量级虚拟 device interface</text></svg>